<svg width="100" height="100" viewBox="0 0 100 100" fill="none" xmlns="http://www.w3.org/2000/svg">
<rect width="100" height="100" fill="#302E2A"/>
<rect opacity="0.5" x="2.5" y="2.5" width="95" height="95" rx="22.5" stroke="#878787" stroke-width="5" stroke-dasharray="12 8"/>
<path d="M67.32 19.5543C66.7836 19.5432 66.1135 19.6402 65.2716 19.8312L50.8517 22.7566L38.0441 25.2841C36.5735 25.5976 35.8445 26.2279 35.5167 27.1637C35.4496 27.3581 35.399 27.5577 35.3655 27.7606C35.2948 28.2287 35.2698 28.7026 35.2907 29.1755L35.3273 61.5852C35.3018 62.155 35.2636 62.6579 35.184 63.102V63.1052C35.0662 63.7705 34.8498 64.2989 34.4169 64.7C33.984 65.1011 33.3346 65.3764 32.3526 65.5324C29.4559 65.9637 27.2849 66.5414 25.6758 67.2545C25.3695 67.3895 25.0695 67.5381 24.7766 67.7001C24.2206 68.0078 23.7431 68.3362 23.3441 68.6853C22.6116 69.3152 22.0554 70.1248 21.7302 71.0345C21.577 71.4753 21.4703 71.9308 21.4119 72.3938C21.3509 72.8825 21.3253 73.3751 21.3355 73.8676C21.3578 75.3923 21.8337 76.8041 22.6597 77.9484C23.2153 78.7192 23.9288 79.3627 24.7527 79.8361C25.6239 80.3351 26.5912 80.6433 27.5905 80.7401C28.1157 80.7942 28.6622 80.7931 29.2299 80.7369C30.726 80.5714 32.0772 80.3024 33.2789 79.8392C35.2827 79.0673 36.8679 77.7495 38.0059 75.4464C38.0951 75.2714 38.1762 75.0751 38.2494 74.8575C38.4723 74.205 38.6282 73.371 38.7221 72.4256C38.8495 71.1634 38.8654 69.7119 38.7778 68.2508L38.7412 42.4717C38.7444 41.7953 38.7062 41.2303 38.7778 40.7639V40.7607C38.7842 40.7194 38.8017 40.6859 38.8097 40.6462C38.8456 40.3896 38.9544 40.1487 39.1232 39.9522C39.4209 39.6084 39.9397 39.3522 40.8358 39.166L55.2318 36.2629V36.2597L63.7787 34.5376C64.4726 34.3975 64.9835 34.4485 65.3225 34.7286C65.6615 35.0071 65.8318 35.518 65.8414 36.3011L65.8796 55.5626C65.8255 56.7006 65.7443 57.5314 65.348 58.1299C65.2474 58.2811 65.1257 58.4172 64.9867 58.5341C64.7002 58.776 64.3182 58.9686 63.8057 59.115H63.8025C63.5145 59.1935 63.2222 59.2557 62.9272 59.3013C61.7706 59.4753 60.7244 59.6742 59.7885 59.8981C58.3847 60.2339 57.2149 60.6302 56.2488 61.0727C55.6037 61.3698 55.0429 61.6892 54.5665 62.0309C53.8519 62.5434 53.6911 62.7375 53.3601 63.1227C52.1982 64.466 51.864 66.0608 51.8878 67.8466C51.9229 70.3883 53.2407 72.5338 55.3384 73.6718C56.2217 74.1465 57.193 74.4347 58.1922 74.5185C58.7184 74.5673 59.2665 74.5631 59.8363 74.5058C61.3308 74.3403 62.6661 74.092 63.8471 73.6511C64.6218 73.3695 65.3511 72.976 66.0117 72.4829C66.9937 71.738 67.8245 70.7305 68.5089 69.3474C68.597 69.1755 68.676 68.9824 68.746 68.7681V68.7649C69.2299 67.2656 69.2808 64.8289 69.3333 62.2266L69.3079 22.7916C69.3079 22.3141 69.2808 21.9115 69.2363 21.5454C69.2202 21.3985 69.1974 21.2525 69.1678 21.1077C69.1561 21.0409 69.1429 20.9761 69.128 20.9135C69.0811 20.7192 69.01 20.5315 68.9163 20.3549C68.8309 20.2056 68.7193 20.073 68.5869 19.9633C68.5455 19.9294 68.502 19.8981 68.4564 19.8694C68.3496 19.7991 68.2347 19.7419 68.1142 19.6991C68.0633 19.6779 68.0102 19.6593 67.955 19.6434C67.747 19.5891 67.5333 19.5597 67.3184 19.5559L67.32 19.5543Z" fill="url(#paint0_linear_1_70)"/>
<rect width="8" height="78.7404" rx="4" transform="matrix(0.724222 -0.689567 0.648699 0.761045 23 24.5165)" fill="#302E2A"/>
<rect width="5" height="77.7895" rx="2.5" transform="matrix(0.724222 -0.689567 0.648699 0.761045 24 23.4478)" fill="url(#paint1_linear_1_70)"/>
<defs>
<linearGradient id="paint0_linear_1_70" x1="45.001" y1="76.1499" x2="45.001" y2="27.2353" gradientUnits="userSpaceOnUse">
<stop stop-color="#434343"/>
<stop offset="1" stop-color="#787878" stop-opacity="0.76"/>
</linearGradient>
<linearGradient id="paint1_linear_1_70" x1="2.5" y1="0" x2="2.5" y2="77.7895" gradientUnits="userSpaceOnUse">
<stop stop-color="#787878" stop-opacity="0.76"/>
<stop offset="1" stop-color="#434343"/>
</linearGradient>
</defs>
</svg>
